<svg xmlns="http://www.w3.org/2000/svg" xmlns:xlink="http://www.w3.org/1999/xlink" version="1.1" width="256" height="256" viewBox="0 0 256 256" xml:space="preserve">
<desc>Created with Fabric.js 1.7.22</desc>
<defs>
</defs>
<g transform="translate(128 128) scale(0.72 0.72)" style="">
	<g style="stroke: none; stroke-width: 0; stroke-dasharray: none; stroke-linecap: butt; stroke-linejoin: miter; stroke-miterlimit: 10; fill: none; fill-rule: nonzero; opacity: 1;" transform="translate(-175.05 -175.05000000000004) scale(3.89 3.89)" >
	<path d="M 22.801 90 H 9.875 c -2.461 0 -4.463 -2.002 -4.463 -4.463 V 58.453 c 0 -2.461 2.002 -4.463 4.463 -4.463 h 12.926 c 2.461 0 4.464 2.002 4.464 4.463 v 27.084 C 27.265 87.998 25.263 90 22.801 90 z M 9.875 56.957 c -0.825 0 -1.496 0.671 -1.496 1.496 v 27.084 c 0 0.825 0.671 1.496 1.496 1.496 h 12.926 c 0.825 0 1.497 -0.671 1.497 -1.496 V 58.453 c 0 -0.825 -0.671 -1.496 -1.497 -1.496 H 9.875 z" style="stroke: none; stroke-width: 1; stroke-dasharray: none; stroke-linecap: butt; stroke-linejoin: miter; stroke-miterlimit: 10; fill: rgb(0,0,0); fill-rule: nonzero; opacity: 1;" transform=" matrix(1 0 0 1 0 0) " stroke-linecap="round" />
	<path d="M 51.463 90 H 38.537 c -2.461 0 -4.464 -2.002 -4.464 -4.463 V 40.279 c 0 -2.461 2.002 -4.464 4.464 -4.464 h 12.926 c 2.461 0 4.463 2.002 4.463 4.464 v 45.257 C 55.926 87.998 53.924 90 51.463 90 z M 38.537 38.783 c -0.825 0 -1.497 0.671 -1.497 1.497 v 45.257 c 0 0.825 0.671 1.496 1.497 1.496 h 12.926 c 0.825 0 1.496 -0.671 1.496 -1.496 V 40.279 c 0 -0.825 -0.671 -1.497 -1.496 -1.497 H 38.537 z" style="stroke: none; stroke-width: 1; stroke-dasharray: none; stroke-linecap: butt; stroke-linejoin: miter; stroke-miterlimit: 10; fill: rgb(0,0,0); fill-rule: nonzero; opacity: 1;" transform=" matrix(1 0 0 1 0 0) " stroke-linecap="round" />
	<path d="M 80.124 90 H 67.198 c -2.461 0 -4.463 -2.002 -4.463 -4.463 V 4.464 C 62.735 2.002 64.737 0 67.198 0 h 12.926 c 2.462 0 4.464 2.002 4.464 4.464 v 81.073 C 84.588 87.998 82.586 90 80.124 90 z M 67.198 2.967 c -0.825 0 -1.496 0.671 -1.496 1.497 v 81.073 c 0 0.825 0.671 1.496 1.496 1.496 h 12.926 c 0.826 0 1.497 -0.671 1.497 -1.496 V 4.464 c 0 -0.825 -0.671 -1.497 -1.497 -1.497 H 67.198 z" style="stroke: none; stroke-width: 1; stroke-dasharray: none; stroke-linecap: butt; stroke-linejoin: miter; stroke-miterlimit: 10; fill: rgb(0,0,0); fill-rule: nonzero; opacity: 1;" transform=" matrix(1 0 0 1 0 0) " stroke-linecap="round" />
</g>
</g>
</svg>